<svg width="16" height="15" viewBox="0 0 16 15" fill="none" xmlns="http://www.w3.org/2000/svg">
<path fill-rule="evenodd" clip-rule="evenodd" d="M15.5 7.5C15.5 11.6421 12.1421 15 8 15C3.85786 15 0.5 11.6421 0.5 7.5C0.5 3.35786 3.85786 0 8 0C12.1421 0 15.5 3.35786 15.5 7.5ZM8 4.3125C7.48223 4.3125 7.0625 4.73223 7.0625 5.25C7.0625 5.56066 6.81066 5.8125 6.5 5.8125C6.18934 5.8125 5.9375 5.56066 5.9375 5.25C5.9375 4.11091 6.86091 3.1875 8 3.1875C9.13909 3.1875 10.0625 4.11091 10.0625 5.25C10.0625 5.65975 9.94243 6.04318 9.73536 6.36497C9.60567 6.56653 9.45404 6.75896 9.31422 6.93272L9.23881 7.02619C9.1228 7.16978 9.01631 7.30158 8.9179 7.43683C8.67522 7.77037 8.5625 8.02102 8.5625 8.25V8.625C8.5625 8.93566 8.31066 9.1875 8 9.1875C7.68934 9.1875 7.4375 8.93566 7.4375 8.625V8.25C7.4375 7.65055 7.73181 7.15483 8.00822 6.77494C8.12501 6.61442 8.253 6.4561 8.36938 6.31215L8.43773 6.22747C8.57662 6.05485 8.69486 5.90299 8.7893 5.75621C8.88305 5.61051 8.9375 5.43747 8.9375 5.25C8.9375 4.73223 8.51777 4.3125 8 4.3125ZM8.5625 10.5C8.5625 10.1893 8.31066 9.9375 8 9.9375C7.68934 9.9375 7.4375 10.1893 7.4375 10.5V11.25C7.4375 11.5607 7.68934 11.8125 8 11.8125C8.31066 11.8125 8.5625 11.5607 8.5625 11.25V10.5Z" fill="#444444"/>
</svg>
