<svg width="18" height="18" viewBox="0 0 18 18" fill="none" xmlns="http://www.w3.org/2000/svg">
<g clip-path="url(#clip0_1_1969)">
<path d="M8.99997 17.3571C11.2164 17.3571 13.3421 16.4767 14.9094 14.9094C16.4766 13.3421 17.3571 11.2164 17.3571 9C17.3571 6.78354 16.4766 4.65787 14.9094 3.0906C13.3421 1.52334 11.2164 0.642853 8.99997 0.642853C6.78351 0.642853 4.65784 1.52334 3.09057 3.0906C1.5233 4.65787 0.642822 6.78354 0.642822 9C0.642822 11.2164 1.5233 13.3421 3.09057 14.9094C4.65784 16.4767 6.78351 17.3571 8.99997 17.3571Z" stroke="black" stroke-linecap="round" stroke-linejoin="round"/>
<path d="M7.07141 12.8571H10.9286" stroke="black" stroke-linecap="round" stroke-linejoin="round"/>
<path d="M8.99995 12.8571V8.35715H7.71423" stroke="black" stroke-linecap="round" stroke-linejoin="round"/>
<path d="M9.00002 5.46427C8.91477 5.46427 8.83301 5.4304 8.77273 5.37012C8.71245 5.30984 8.67859 5.22809 8.67859 5.14284C8.67859 5.05759 8.71245 4.97583 8.77273 4.91556C8.83301 4.85528 8.91477 4.82141 9.00002 4.82141" stroke="black" stroke-linecap="round" stroke-linejoin="round"/>
<path d="M9 5.46427C9.08525 5.46427 9.16701 5.4304 9.22728 5.37012C9.28756 5.30984 9.32143 5.22809 9.32143 5.14284C9.32143 5.05759 9.28756 4.97583 9.22728 4.91556C9.16701 4.85528 9.08525 4.82141 9 4.82141" stroke="black" stroke-linecap="round" stroke-linejoin="round"/>
</g>
<defs>
<clipPath id="clip0_1_1969">
<rect width="18" height="18" fill="white"/>
</clipPath>
</defs>
</svg>
