<svg width="24" height="25" viewBox="0 0 24 25" fill="none" xmlns="http://www.w3.org/2000/svg">
<g clip-path="url(#clip0_1_2164)">
<path fill-rule="evenodd" clip-rule="evenodd" d="M11.8861 2.91223H16.9254C19.445 2.91223 21.5 4.91223 21.5 7.35223V18.4722C21.5 20.9222 19.445 22.9122 16.9047 22.9122H11.8758C9.35611 22.9122 7.29083 20.9222 7.29083 18.4822V13.6822H13.6932L12.041 15.2822C11.7312 15.5822 11.7312 16.0722 12.041 16.3722C12.1959 16.5222 12.4024 16.5922 12.6089 16.5922C12.8051 16.5922 13.0117 16.5222 13.1666 16.3722L16.1819 13.4622C16.3368 13.3222 16.4194 13.1222 16.4194 12.9122C16.4194 12.7122 16.3368 12.5122 16.1819 12.3722L13.1666 9.46223C12.8568 9.16223 12.3508 9.16223 12.041 9.46223C11.7312 9.76223 11.7312 10.2522 12.041 10.5522L13.6932 12.1422H7.29083V7.36223C7.29083 4.91223 9.35611 2.91223 11.8861 2.91223ZM2.5 12.9121C2.5 12.4921 2.85523 12.1421 3.2815 12.1421H7.29052V13.6821H3.2815C2.85523 13.6821 2.5 13.3421 2.5 12.9121Z" fill="white"/>
</g>
<defs>
<clipPath id="clip0_1_2164">
<rect width="24" height="24" fill="white" transform="translate(0 0.912231)"/>
</clipPath>
</defs>
</svg>
