<svg width="28" height="28" viewBox="0 0 28 28" fill="none" xmlns="http://www.w3.org/2000/svg">
<path fill-rule="evenodd" clip-rule="evenodd" d="M14 1.16666C12.3892 1.16666 11.0833 2.47249 11.0833 4.08332C11.0833 5.27934 11.8032 6.30722 12.8333 6.75732V9.04533C9.9792 9.06359 7.86619 9.14706 6.41264 9.23235C4.51772 9.34353 2.98399 10.7536 2.823 12.6854C2.71666 13.9614 2.625 15.7407 2.625 18.0833C2.625 20.426 2.71667 22.2053 2.823 23.4812C2.98399 25.413 4.51772 26.8231 6.4127 26.9343C8.05764 27.0308 10.5474 27.125 14 27.125C17.4526 27.125 19.9424 27.0308 21.5873 26.9343C23.4823 26.8231 25.016 25.413 25.177 23.4812C25.2833 22.2053 25.375 20.426 25.375 18.0833C25.375 15.7407 25.2833 13.9614 25.177 12.6854C25.016 10.7536 23.4823 9.34353 21.5873 9.23235C20.1338 9.14706 18.0207 9.06359 15.1667 9.04533V6.75732C16.1968 6.30722 16.9167 5.27934 16.9167 4.08332C16.9167 2.47249 15.6108 1.16666 14 1.16666ZM11.0833 15.1667C11.0833 14.5223 10.561 14 9.91667 14C9.27232 14 8.75 14.5223 8.75 15.1667V15.75C8.75 16.3943 9.27232 16.9167 9.91667 16.9167C10.561 16.9167 11.0833 16.3943 11.0833 15.75V15.1667ZM18.0833 14C17.439 14 16.9167 14.5223 16.9167 15.1667V15.75C16.9167 16.3943 17.439 16.9167 18.0833 16.9167C18.7277 16.9167 19.25 16.3943 19.25 15.75V15.1667C19.25 14.5223 18.7277 14 18.0833 14ZM9.69967 20.1511C10.2629 19.6201 10.9041 19.8557 11.4256 20.2614C11.5135 20.3297 11.6633 20.4341 11.8778 20.5428C12.3017 20.7579 12.9969 21 14 21C15.0031 21 15.6983 20.7579 16.1222 20.5428C16.3367 20.4341 16.4865 20.3297 16.5744 20.2614C17.0959 19.8557 17.7371 19.6201 18.3003 20.1511C18.7853 20.6083 18.7701 21.3852 18.3073 21.8427C18.2887 21.8612 18.2652 21.8837 18.2368 21.9098C18.1801 21.9618 18.1036 22.0279 18.0069 22.1032C17.8135 22.2536 17.5383 22.4409 17.1778 22.6238C16.4517 22.9921 15.3969 23.3333 14 23.3333C12.6031 23.3333 11.5483 22.9921 10.8222 22.6238C10.4617 22.4409 10.1865 22.2536 9.99308 22.1032C9.89637 22.0279 9.81989 21.9618 9.76319 21.9098C9.26631 21.4538 9.16895 20.6515 9.69967 20.1511Z" fill="white"/>
</svg>
