<svg width="20" height="20" viewBox="0 0 20 20" fill="none" xmlns="http://www.w3.org/2000/svg">
<path d="M9.99886 1.62793C5.39636 1.62793 1.66553 5.35893 1.66553 9.96126C1.66553 11.1563 1.94053 12.3076 2.42053 13.3728C1.7372 16.9019 1.69137 17.305 1.69137 17.305C1.5797 17.883 2.07636 18.378 2.65553 18.2686C2.65553 18.2686 3.02303 18.1878 6.5872 17.5133C7.6522 17.9933 8.80386 18.2946 9.99886 18.2946C14.6014 18.2946 18.3322 14.5636 18.3322 9.96126C18.3322 5.35893 14.6014 1.62793 9.99886 1.62793ZM7.65552 5.7946C8.43635 5.7946 9.47803 6.83626 9.47803 7.61751C9.47803 7.87793 8.93303 8.8041 8.95719 8.9196C9.13053 9.74693 10.2105 10.8531 11.0405 11.0029C11.1397 11.0208 12.0822 10.4821 12.3422 10.4821C13.1239 10.4821 14.1655 11.5238 14.1655 12.305C14.1655 13.0863 13.1239 14.1279 12.3422 14.1279C11.3355 14.1279 9.47803 13.0863 8.43636 12.0446C8.32386 11.9325 8.02803 11.6358 7.91553 11.5238C6.87386 10.4821 5.83219 8.62435 5.83219 7.61751C5.83219 6.83626 6.87385 5.7946 7.65552 5.7946Z" fill="#444444"/>
</svg>
