<svg width="20" height="20" viewBox="0 0 20 20" fill="none" xmlns="http://www.w3.org/2000/svg">
<path d="M7.61982 17.3184V14.7627C7.6198 14.1151 8.14643 13.5889 8.79874 13.5848H11.1939C11.8491 13.5848 12.3803 14.1122 12.3803 14.7627V17.311C12.3802 17.8727 12.8367 18.3292 13.4025 18.3333H15.0366C15.7997 18.3353 16.5323 18.0357 17.0727 17.5006C17.613 16.9655 17.9167 16.239 17.9167 15.4813V8.22153C17.9167 7.60948 17.6434 7.02892 17.1706 6.63624L11.6192 2.22855C10.6488 1.45759 9.26285 1.4825 8.3212 2.28781L2.88922 6.63624C2.39399 7.01734 2.098 7.59963 2.08337 8.22153V15.4739C2.08337 17.0531 3.37286 18.3333 4.96352 18.3333H6.56028C6.83268 18.3353 7.09461 18.2292 7.28793 18.0387C7.48126 17.8481 7.58998 17.5889 7.58997 17.3184H7.61982Z" fill="#200E32"/>
</svg>
