<svg width="24" height="25" viewBox="0 0 24 25" fill="none" xmlns="http://www.w3.org/2000/svg">
<g clip-path="url(#clip0_1_2168)">
<path fill-rule="evenodd" clip-rule="evenodd" d="M2 11.5822C2 6.79389 5.84034 2.91223 10.5776 2.91223C12.8526 2.91223 15.0343 3.82567 16.6429 5.45159C18.2516 7.07752 19.1553 9.28275 19.1553 11.5822C19.1553 16.3704 15.3149 20.2521 10.5776 20.2521C5.84034 20.2521 2 16.3704 2 11.5822ZM19.0134 18.5665L21.568 20.6286H21.6124C22.1292 21.151 22.1292 21.998 21.6124 22.5204C21.0955 23.0428 20.2576 23.0428 19.7407 22.5204L17.6207 20.0907C17.4203 19.8888 17.3076 19.6146 17.3076 19.3286C17.3076 19.0426 17.4203 18.7684 17.6207 18.5665C18.0072 18.1826 18.6268 18.1826 19.0134 18.5665Z" fill="white"/>
</g>
<defs>
<clipPath id="clip0_1_2168">
<rect width="24" height="24" fill="white" transform="translate(0 0.912231)"/>
</clipPath>
</defs>
</svg>
